<svg xmlns="http://www.w3.org/2000/svg" width="246" height="95" viewBox="0 0 246 95">
  <defs>
    <style>
      .cls-1 {
        fill: #3f609c;
        fill-rule: evenodd;
      }
    </style>
  </defs>
  <path id="EXCELENCE_ALWAYS_" data-name="EXCELENCE ALWAYS!" class="cls-1" d="M24,18.677a12.009,12.009,0,0,0-2.634-8.008,8.374,8.374,0,0,0-6.7-3.128H3.03V69.125H14.67A8.388,8.388,0,0,0,21.352,66,11.961,11.961,0,0,0,24,57.989V18.677ZM17.841,62.455a5.475,5.475,0,0,1-4.276,1.83H7.55v-51.9h6.275a5.092,5.092,0,0,1,4.081,1.869,7.343,7.343,0,0,1,1.577,4.9V57.438A7.242,7.242,0,0,1,17.841,62.455ZM62.3,64.285H50.105v-24H61.03V35.362H50.105V12.381h12V7.54H45.586V69.125H62.3v-4.84ZM98.513,7.54L92.206,56.572q-0.2,2.637-.228,4.014l-0.2-4.014L85.475,7.54H80.988L89.8,69.282h4.259L102.87,7.54H98.513Zm41.158,56.744H125.364l14.307-53.911V7.54H121.56v4.84h12.908L120.162,66.213v2.912h19.509v-4.84ZM163.986,7.54h-4.52V69.125h4.52V7.54Zm38.393,56.744H190.642V7.54h-4.52V69.125h16.257v-4.84Zm31.339-56.9h-4.455l-9.071,61.585v0.157h4.357l1.788-13.694h10.112l1.788,13.694h4.487Zm-6.8,43.208,4.487-33.37,4.454,33.37h-8.941ZM7.307,87.611V86.549H2.094V83.485h4.7V82.429h-4.7V79.673H7.11V78.611H0.97v9H7.307Zm9.572,0,2.132-3.137q0.122-.184.405-0.675,0.191,0.325.371,0.6l2.137,3.211h1.39L20.1,82.853l2.983-4.242H21.86L20.152,81a11.784,11.784,0,0,0-.672,1.025q-0.2-.387-0.684-1.105l-1.541-2.308H15.918l2.9,4.31-3.284,4.691h1.35ZM37.01,86.168a2.332,2.332,0,0,1-1.6.577,2.637,2.637,0,0,1-1.442-.424,2.467,2.467,0,0,1-.982-1.28,5.788,5.788,0,0,1-.316-2,5.671,5.671,0,0,1,.266-1.728,2.533,2.533,0,0,1,2.56-1.833,2.2,2.2,0,0,1,1.413.448,2.8,2.8,0,0,1,.857,1.431l1.106-.276a3.59,3.59,0,0,0-1.211-1.934,3.346,3.346,0,0,0-2.143-.688A4.026,4.026,0,0,0,33.462,79a3.6,3.6,0,0,0-1.442,1.59,5.57,5.57,0,0,0-.507,2.453,6.442,6.442,0,0,0,.449,2.413,3.664,3.664,0,0,0,1.309,1.716,3.858,3.858,0,0,0,2.233.593,3.374,3.374,0,0,0,2.245-.77,4.055,4.055,0,0,0,1.271-2.238l-1.124-.3A3,3,0,0,1,37.01,86.168ZM54.3,87.611V86.549H49.084V83.485h4.7V82.429h-4.7V79.673H54.1V78.611H47.96v9H54.3Zm14.345,0V86.549H64.46V78.611H63.336v9h5.306Zm15.231,0V86.549H78.66V83.485h4.7V82.429h-4.7V79.673h5.016V78.611h-6.14v9h6.337Zm10.151,0V80.539l4.46,7.073h1.153v-9H98.559v7.067L94.1,78.611H92.946v9h1.077Zm20.206-1.443a2.331,2.331,0,0,1-1.6.577,2.637,2.637,0,0,1-1.442-.424,2.47,2.47,0,0,1-.982-1.28,5.8,5.8,0,0,1-.315-2,5.658,5.658,0,0,1,.266-1.728,2.534,2.534,0,0,1,2.56-1.833,2.2,2.2,0,0,1,1.414.448,2.807,2.807,0,0,1,.857,1.431l1.106-.276a3.591,3.591,0,0,0-1.21-1.934,3.348,3.348,0,0,0-2.143-.688,4.028,4.028,0,0,0-2.06.543,3.6,3.6,0,0,0-1.442,1.59,5.569,5.569,0,0,0-.507,2.453,6.448,6.448,0,0,0,.449,2.413,3.665,3.665,0,0,0,1.309,1.716,3.86,3.86,0,0,0,2.233.593,3.376,3.376,0,0,0,2.245-.77,4.051,4.051,0,0,0,1.271-2.238l-1.124-.3A3,3,0,0,1,114.23,86.168Zm17.287,1.443V86.549H126.3V83.485H131V82.429h-4.7V79.673h5.016V78.611h-6.14v9h6.337Zm19.52,0,0.933-2.726h3.55l0.991,2.726h1.28l-3.475-9H153.1l-3.261,9h1.193Zm2.19-6.336a11.982,11.982,0,0,0,.457-1.719q0.2,0.731.6,1.866l0.886,2.493h-2.879Zm18.254,6.336V86.549H167.3V78.611h-1.124v9h5.306Zm10.62,0,1.8-6.858q0.115-.436.249-1.056,0.041,0.2.266,1.056l1.79,6.858h1.083l2.329-9h-1.13l-1.332,5.783q-0.261,1.105-.423,1.959a25.366,25.366,0,0,0-.66-3.186l-1.217-4.556H183.5l-1.616,6.078q-0.058.221-.382,1.664-0.151-.915-0.359-1.842l-1.292-5.9H178.7l2.253,9H182.1Zm15.92,0,0.933-2.726h3.551l0.99,2.726h1.28l-3.475-9h-1.211l-3.261,9h1.193Zm2.19-6.336a12.119,12.119,0,0,0,.458-1.719q0.2,0.731.6,1.866l0.886,2.493h-2.879Zm15.63,6.336V83.8l3.389-5.188h-1.309l-1.645,2.646q-0.544.884-.927,1.59-0.4-.761-0.863-1.523l-1.674-2.714h-1.367l3.273,5.188v3.813h1.123Zm12.014-1.274a2.742,2.742,0,0,0,1.222,1.071,4.641,4.641,0,0,0,1.932.356,3.7,3.7,0,0,0,1.636-.353,2.6,2.6,0,0,0,1.115-.988,2.551,2.551,0,0,0,.388-1.354,2.339,2.339,0,0,0-.353-1.28,2.613,2.613,0,0,0-1.095-.918,10.726,10.726,0,0,0-1.88-.574,4.321,4.321,0,0,1-1.694-.641,1.052,1.052,0,0,1-.33-0.8,1.211,1.211,0,0,1,.466-0.955,2.275,2.275,0,0,1,1.486-.4,2.2,2.2,0,0,1,1.48.436,1.886,1.886,0,0,1,.588,1.289l1.077-.086a2.835,2.835,0,0,0-.417-1.418,2.436,2.436,0,0,0-1.109-.948,4.046,4.046,0,0,0-1.665-.322,3.849,3.849,0,0,0-1.559.307,2.288,2.288,0,0,0-1.065.9,2.38,2.38,0,0,0-.365,1.274,2.145,2.145,0,0,0,.3,1.121,2.344,2.344,0,0,0,.907.838,7.4,7.4,0,0,0,1.639.562,14.345,14.345,0,0,1,1.512.439,1.712,1.712,0,0,1,.764.531,1.215,1.215,0,0,1,.232.74,1.336,1.336,0,0,1-.241.771,1.58,1.58,0,0,1-.732.556,2.969,2.969,0,0,1-1.136.2,3.077,3.077,0,0,1-1.3-.267,1.931,1.931,0,0,1-.854-0.7,2.584,2.584,0,0,1-.351-1.108l-1.06.1A3.168,3.168,0,0,0,227.855,86.337Zm16.456-.961,0.3-4.77v-2H243.32v2l0.319,4.77h0.672Zm0.254,2.235V86.353h-1.2v1.259h1.2Z" transform="translate(0.203 -0.063)"/>
</svg>
